<svg width="21" height="18" viewBox="0 0 21 18" fill="none" xmlns="http://www.w3.org/2000/svg">
<path d="M19.5 6.25H13.5M19.5 1H1.5M19.5 11.75H13.5M19.5 17H1.5M3.1 13H7.9C8.46005 13 8.74008 13 8.95399 12.891C9.14215 12.7951 9.29513 12.6422 9.39101 12.454C9.5 12.2401 9.5 11.9601 9.5 11.4V6.6C9.5 6.03995 9.5 5.75992 9.39101 5.54601C9.29513 5.35785 9.14215 5.20487 8.95399 5.10899C8.74008 5 8.46005 5 7.9 5H3.1C2.53995 5 2.25992 5 2.04601 5.10899C1.85785 5.20487 1.70487 5.35785 1.60899 5.54601C1.5 5.75992 1.5 6.03995 1.5 6.6V11.4C1.5 11.9601 1.5 12.2401 1.60899 12.454C1.70487 12.6422 1.85785 12.7951 2.04601 12.891C2.25992 13 2.53995 13 3.1 13Z" stroke="#666666" stroke-width="2" stroke-linecap="round" stroke-linejoin="round"/>
</svg>
